<svg width="20" height="20" viewBox="0 0 20 20" fill="none" xmlns="http://www.w3.org/2000/svg">
  <path fill-rule="evenodd" clip-rule="evenodd" d="M4 3C2.89543 3 2 3.89543 2 5V15C2 16.1046 2.89543 17 4 17H16C17.1046 17 18 16.1046 18 15V5C18 3.89543 17.1046 3 16 3H4ZM3.5 5C3.5 4.72386 3.72386 4.5 4 4.5H16C16.2761 4.5 16.5 4.72386 16.5 5V15C16.5 15.2761 16.2761 15.5 16 15.5H4C3.72386 15.5 3.5 15.2761 3.5 15V5ZM10 7C10.4142 7 10.75 7.33579 10.75 7.75V9.25H12.25C12.6642 9.25 13 9.58579 13 10C13 10.4142 12.6642 10.75 12.25 10.75H10.75V12.25C10.75 12.6642 10.4142 13 10 13C9.58579 13 9.25 12.6642 9.25 12.25V10.75H7.75C7.33579 10.75 7 10.4142 7 10C7 9.58579 7.33579 9.25 7.75 9.25H9.25V7.75C9.25 7.33579 9.58579 7 10 7Z" fill="currentColor"/>
</svg>
