<svg width="24" height="24" viewBox="0 0 24 24" fill="none" xmlns="http://www.w3.org/2000/svg">
  <path fill-rule="evenodd" clip-rule="evenodd" d="M17 3.25H7C5.75736 3.25 4.75 4.25736 4.75 5.5V18.5C4.75 19.7426 5.75736 20.75 7 20.75H17C18.2426 20.75 19.25 19.7426 19.25 18.5V5.5C19.25 4.25736 18.2426 3.25 17 3.25ZM6.25 5.5C6.25 5.08579 6.58579 4.75 7 4.75H17C17.4142 4.75 17.75 5.08579 17.75 5.5V18.5C17.75 18.9142 17.4142 19.25 17 19.25H7C6.58579 19.25 6.25 18.9142 6.25 18.5V5.5Z" fill="currentColor"/>
  <path fill-rule="evenodd" clip-rule="evenodd" d="M7.75 7C7.75 6.58579 8.08579 6.25 8.5 6.25H15.5C15.9142 6.25 16.25 6.58579 16.25 7V9C16.25 9.41421 15.9142 9.75 15.5 9.75H8.5C8.08579 9.75 7.75 9.41421 7.75 9V7ZM9.25 7.75V8.25H14.75V7.75H9.25Z" fill="currentColor"/>
  <path d="M8.5 12.25H8.51M12 12.25H12.01M15.5 12.25H15.51M8.5 15.25H8.51M12 15.25H12.01M15.5 15.25H15.51M8.5 18.25H8.51M12 18.25H12.01M15.5 18.25H15.51" stroke="currentColor" stroke-width="2" stroke-linecap="round" stroke-linejoin="round"/>
</svg>
